<svg width="24" height="18" viewBox="0 0 24 18" fill="none" xmlns="http://www.w3.org/2000/svg">
<path d="M21.8839 7.17168e-06H2.12446C1.84597 -0.000716165 1.57006 0.0532843 1.31253 0.158892C1.055 0.264499 0.820891 0.419682 0.623576 0.61554C0.42626 0.811397 0.26962 1.04409 0.162615 1.30032C0.0556381 1.55655 0.000362917 1.8313 0 2.10881V13.9215C0.000725835 14.4804 0.22392 15.0165 0.620616 15.4118C1.01728 15.8072 1.5551 16.0295 2.11609 16.0303H10.3739V16.7369H7.55705C7.389 16.7369 7.2278 16.8034 7.10896 16.9219C6.99012 17.0405 6.92335 17.201 6.92335 17.3685C6.92335 17.536 6.99012 17.6965 7.10896 17.815C7.2278 17.9335 7.389 18 7.55705 18H16.4513C16.6194 18 16.7805 17.9335 16.8994 17.815C17.0183 17.6965 17.085 17.536 17.085 17.3685C17.085 17.201 17.0183 17.0405 16.8994 16.9219C16.7805 16.8034 16.6194 16.7369 16.4513 16.7369H13.6261V16.0303H21.8839C22.445 16.0295 22.9827 15.8072 23.3794 15.4118C23.7761 15.0165 23.9992 14.4804 24 13.9215V2.10881C23.9992 1.54976 23.7761 1.01379 23.3794 0.618489C22.9827 0.223157 22.445 0.000758329 21.8839 7.17168e-06ZM21.7443 2.24792V13.7824H2.26405V2.24792H21.7443Z" fill="white"/>
<path d="M15.3374 11.6792C14.9818 11.3142 14.556 11.0243 14.0854 10.8265C13.615 10.6286 13.1097 10.5269 12.5988 10.5275H11.4097C10.8991 10.5269 10.3935 10.6286 9.92312 10.8265C9.45267 11.0243 9.02691 11.3142 8.67106 11.6792C8.37933 11.9753 8.13626 12.3149 7.95081 12.6864H16.0465C15.8645 12.3158 15.6253 11.9758 15.3374 11.6792Z" fill="white"/>
<path d="M9.58643 7.79264C9.6697 7.9696 9.77272 8.13667 9.89354 8.29063C10.2808 8.79037 10.8334 9.13704 11.4531 9.26897C12.0727 9.40087 12.7191 9.3095 13.2777 9.0111C13.8361 8.71267 14.2702 8.22656 14.5027 7.63921C14.7353 7.05186 14.7512 6.4013 14.548 5.80329C14.3444 5.20529 13.9349 4.69854 13.3916 4.3732C12.8487 4.04787 12.2075 3.92504 11.5821 4.0265C10.9567 4.12799 10.3877 4.44723 9.97629 4.92747C9.56488 5.40768 9.33772 6.01776 9.33521 6.64921C9.33568 6.86702 9.36382 7.08388 9.41893 7.29465C9.45681 7.46614 9.51295 7.63306 9.58643 7.79264Z" fill="white"/>
</svg>
