<svg width="70" height="58" viewBox="0 0 70 58" fill="none" xmlns="http://www.w3.org/2000/svg">
<g filter="url(#filter0_d)">
<path fill-rule="evenodd" clip-rule="evenodd" d="M35 47.5C45.3553 47.5 53.75 39.1053 53.75 28.75C53.75 18.3947 45.3553 10 35 10C24.6447 10 16.25 18.3947 16.25 28.75C16.25 39.1053 24.6447 47.5 35 47.5Z" fill="url(#paint0_linear)"/>
<path d="M46.948 28.1972L40.2403 21.4896C39.9352 21.1845 39.4406 21.1845 39.1355 21.4896L38.0364 22.5886C37.7316 22.8934 37.7313 23.3875 38.0357 23.6927L43.0785 28.7496L38.0357 33.8066C37.7313 34.1118 37.7316 34.6059 38.0364 34.9107L39.1355 36.0097C39.4406 36.3148 39.9352 36.3148 40.2403 36.0097L46.948 29.3021C47.2531 28.997 47.2531 28.5023 46.948 28.1972Z" fill="black"/>
<mask id="mask0" mask-type="alpha" maskUnits="userSpaceOnUse" x="37" y="21" width="11" height="16">
<path d="M46.948 28.1972L40.2403 21.4896C39.9352 21.1845 39.4406 21.1845 39.1355 21.4896L38.0364 22.5886C37.7316 22.8934 37.7313 23.3875 38.0357 23.6927L43.0785 28.7496L38.0357 33.8066C37.7313 34.1118 37.7316 34.6059 38.0364 34.9107L39.1355 36.0097C39.4406 36.3148 39.9352 36.3148 40.2403 36.0097L46.948 29.3021C47.2531 28.997 47.2531 28.5023 46.948 28.1972Z" fill="white"/>
</mask>
<g mask="url(#mask0)">
<rect x="22.5" y="10" width="37.5" height="37.5" fill="white"/>
</g>
<path d="M23.052 28.1972L29.7597 21.4896C30.0648 21.1845 30.5594 21.1845 30.8645 21.4896L31.9636 22.5886C32.2684 22.8934 32.2687 23.3875 31.9643 23.6927L26.9215 28.7496L31.9643 33.8066C32.2687 34.1118 32.2684 34.6059 31.9636 34.9107L30.8645 36.0097C30.5594 36.3148 30.0648 36.3148 29.7597 36.0097L23.052 29.3021C22.7469 28.997 22.7469 28.5023 23.052 28.1972Z" fill="black"/>
<mask id="mask1" mask-type="alpha" maskUnits="userSpaceOnUse" x="22" y="21" width="11" height="16">
<path d="M23.052 28.1972L29.7597 21.4896C30.0648 21.1845 30.5594 21.1845 30.8645 21.4896L31.9636 22.5886C32.2684 22.8934 32.2687 23.3875 31.9643 23.6927L26.9215 28.7496L31.9643 33.8066C32.2687 34.1118 32.2684 34.6059 31.9636 34.9107L30.8645 36.0097C30.5594 36.3148 30.0648 36.3148 29.7597 36.0097L23.052 29.3021C22.7469 28.997 22.7469 28.5023 23.052 28.1972Z" fill="white"/>
</mask>
<g mask="url(#mask1)">
<rect width="37.5" height="37.5" transform="matrix(-1 0 0 1 47.5 10)" fill="white"/>
</g>
</g>
<defs>
<filter id="filter0_d" x="0" y="0" width="70" height="57.5" filterUnits="userSpaceOnUse" color-interpolation-filters="sRGB">
<feFlood flood-opacity="0" result="BackgroundImageFix"/>
<feColorMatrix in="SourceAlpha" type="matrix" values="0 0 0 0 0 0 0 0 0 0 0 0 0 0 0 0 0 0 127 0"/>
<feOffset/>
<feGaussianBlur stdDeviation="5"/>
<feColorMatrix type="matrix" values="0 0 0 0 0 0 0 0 0 0 0 0 0 0 0 0 0 0 0.5 0"/>
<feBlend mode="normal" in2="BackgroundImageFix" result="effect1_dropShadow"/>
<feBlend mode="normal" in="SourceGraphic" in2="effect1_dropShadow" result="shape"/>
</filter>
<linearGradient id="paint0_linear" x1="16.25" y1="10" x2="55.9726" y2="12.5242" gradientUnits="userSpaceOnUse">
<stop stop-color="#EC008C"/>
<stop offset="1" stop-color="#F15A29"/>
</linearGradient>
</defs>
</svg>
